<svg width="141" height="30" viewBox="0 0 141 30" fill="none" xmlns="http://www.w3.org/2000/svg">
<path d="M41.0808 18.8885C41.4336 18.8885 41.7494 19.0447 42.0284 19.3553C42.3083 19.6641 42.4496 20.0177 42.4496 20.4152C42.4496 21.0469 42.0653 21.5778 41.2984 22.0051C40.5333 22.4324 39.591 22.6473 38.4732 22.6473C36.7342 22.6473 35.3049 22.0735 34.1844 20.9241C33.0657 19.7738 32.5068 18.2919 32.5068 16.4809C32.5068 14.6822 33.0657 13.2012 34.1844 12.0377C35.3049 10.8752 36.7412 10.2935 38.4942 10.2935C39.6147 10.2935 40.5509 10.4926 41.3019 10.8901C42.0521 11.2884 42.4285 11.7894 42.4285 12.3922C42.4285 12.8625 42.2943 13.2538 42.0284 13.5644C41.7635 13.8733 41.4327 14.0277 41.0352 14.0277C40.8878 14.0277 40.6149 13.9575 40.2175 13.8171C39.8191 13.6776 39.5024 13.5776 39.2664 13.5188C39.0321 13.4609 38.797 13.4311 38.5609 13.4311C37.7792 13.4311 37.1483 13.7074 36.6692 14.2593C36.1919 14.8121 35.9533 15.5377 35.9533 16.4353C35.9533 17.3338 36.1954 18.0646 36.6798 18.6253C37.1659 19.1851 37.8002 19.4641 38.582 19.4641C38.8321 19.4641 39.0347 19.4501 39.1892 19.422C39.3427 19.3921 39.5682 19.3167 39.863 19.1974L40.3719 19.0219C40.6378 18.9333 40.8747 18.8885 41.0808 18.8885Z" fill="#CC0000"/>
<path d="M49.0146 10.2476C50.6799 10.2476 52.0724 10.8451 53.1911 12.0375C54.3115 13.2307 54.8722 14.7039 54.8722 16.4561C54.8722 18.1951 54.3115 19.6621 53.1911 20.8571C52.0724 22.0504 50.6799 22.647 49.0146 22.647C47.3651 22.647 45.9797 22.0504 44.8592 20.8571C43.7405 19.6621 43.1816 18.1811 43.1816 16.414C43.1816 14.6899 43.7405 13.2307 44.8592 12.0375C45.9797 10.8451 47.3651 10.2476 49.0146 10.2476ZM46.5614 16.4561C46.5614 17.3853 46.793 18.1486 47.2563 18.7444C47.7213 19.341 48.3074 19.6393 49.0146 19.6393C49.735 19.6393 50.3237 19.3445 50.78 18.7549C51.238 18.1661 51.4679 17.4072 51.4679 16.4806C51.4679 15.5664 51.238 14.8153 50.78 14.2275C50.3237 13.6387 49.735 13.343 49.0146 13.343C48.3074 13.343 47.7213 13.6352 47.2563 14.2169C46.793 14.7978 46.5614 15.5445 46.5614 16.4561Z" fill="#CC0000"/>
<path d="M60.0235 11.0653C60.3314 10.8293 60.7333 10.6336 61.2273 10.4792C61.7204 10.3256 62.2108 10.2476 62.6978 10.2476C63.9937 10.2476 65.0501 10.6354 65.867 11.4092C66.6856 12.1814 67.0953 13.2246 67.0953 14.5363V20.8993C67.0953 21.3862 66.9286 21.796 66.597 22.1276C66.2644 22.4567 65.8626 22.6225 65.3932 22.6225C64.9062 22.6225 64.493 22.4602 64.1543 22.1382C63.8147 21.8135 63.6454 21.4073 63.6454 20.9203V15.1084C63.6454 14.5802 63.4532 14.1169 63.0698 13.7186C62.6881 13.3211 62.2178 13.1219 61.6589 13.1219C61.1132 13.1219 60.649 13.3141 60.2656 13.6975C59.8813 14.0792 59.69 14.5495 59.69 15.1084V20.8993C59.69 21.3555 59.5198 21.7539 59.1811 22.0925C58.8442 22.4312 58.4389 22.6014 57.9668 22.6014C57.5106 22.6014 57.1122 22.4312 56.7735 22.0925C56.434 21.7539 56.2646 21.3485 56.2646 20.8782V12.0585C56.2646 11.5891 56.4305 11.1802 56.763 10.8337C57.0947 10.488 57.5035 10.3142 57.9879 10.3142C58.1651 10.3142 58.3862 10.4257 58.6512 10.6477C58.917 10.8679 59.1987 11.1688 59.4935 11.5496L60.0235 11.0653Z" fill="#CC0000"/>
<path d="M73.0396 13.1219C72.7281 13.1219 72.4763 13.1895 72.285 13.322C72.0955 13.4536 72.0007 13.6291 72.0007 13.8484C72.0007 14.0853 72.1104 14.2775 72.3306 14.424C72.5526 14.5714 72.9948 14.7741 73.6573 15.0312C74.3188 15.2891 74.8233 15.4997 75.1699 15.6629C75.5156 15.8243 76.0131 16.113 76.6615 16.5263C77.309 16.9387 77.6337 17.7108 77.6337 18.8426C77.6337 19.9499 77.1941 20.8615 76.3175 21.5766C75.4419 22.2908 74.3197 22.647 72.9518 22.647C71.7278 22.647 70.6478 22.3926 69.7124 21.8855C68.7763 21.3757 68.3086 20.7896 68.3086 20.1271C68.3086 19.7297 68.4472 19.3831 68.7262 19.0883C69.0061 18.7944 69.3457 18.6461 69.744 18.6461C69.8765 18.6461 70.0362 18.6759 70.2213 18.7338C70.4056 18.7926 70.6083 18.8663 70.8285 18.9549L71.4462 19.3094C71.712 19.4568 71.9972 19.5753 72.299 19.6639C72.6 19.7507 72.8614 19.7937 73.0817 19.7937C73.4204 19.7937 73.7081 19.706 73.945 19.5305C74.1811 19.3533 74.2995 19.1392 74.2995 18.8882C74.2995 18.4908 73.8634 18.1372 72.9939 17.8283L72.0885 17.4739C71.0285 17.0904 70.2907 16.7509 69.8774 16.4561C69.465 16.1621 69.1632 15.8086 68.9719 15.3962C68.7798 14.9847 68.6841 14.5354 68.6841 14.0485C68.6841 12.9447 69.1141 12.0357 69.9757 11.3215C70.8382 10.6064 71.934 10.2476 73.2607 10.2476C74.3504 10.2476 75.3041 10.4809 76.121 10.946C76.9396 11.4092 77.3494 11.9506 77.3494 12.5674C77.3494 12.9517 77.2186 13.2807 76.9598 13.5536C76.7019 13.8256 76.3825 13.9607 76.0017 13.9607C75.735 13.9607 75.4831 13.9011 75.2471 13.7817L74.6505 13.5185C74.0187 13.2544 73.4809 13.1219 73.0396 13.1219Z" fill="#CC0000"/>
<path d="M84.2683 22.6227C82.5574 22.6227 81.2307 22.1963 80.2884 21.3417C79.3452 20.488 78.874 19.2877 78.874 17.7408V12.0166C78.874 11.5446 79.0469 11.1427 79.3934 10.8128C79.7391 10.4812 80.1489 10.3145 80.6218 10.3145C81.0912 10.3145 81.4931 10.4812 81.8256 10.8128C82.1573 11.1427 82.324 11.5446 82.324 12.0166V17.4285C82.324 18.8885 82.9715 19.6185 84.2683 19.6185C84.8992 19.6185 85.3852 19.4272 85.7248 19.0429C86.0635 18.6595 86.2337 18.1216 86.2337 17.4285V12.0166C86.2337 11.5446 86.3987 11.1427 86.7286 10.8128C87.0602 10.4812 87.4629 10.3145 87.9359 10.3145C88.4219 10.3145 88.8308 10.4812 89.1607 10.8128C89.4924 11.1427 89.6591 11.5446 89.6591 12.0166V17.7408C89.6591 19.2877 89.187 20.488 88.2447 21.3417C87.3015 22.1963 85.9757 22.6227 84.2683 22.6227Z" fill="#CC0000"/>
<path d="M93.1959 22.6021C92.7116 22.6021 92.3027 22.4363 91.971 22.1072C91.6385 21.7756 91.4727 21.3728 91.4727 20.8999V6.82283C91.4727 6.35079 91.642 5.94543 91.9816 5.6085C92.3202 5.26983 92.7256 5.09961 93.1959 5.09961C93.6679 5.09961 94.0742 5.26983 94.4137 5.6085C94.7524 5.94543 94.9226 6.35079 94.9226 6.82283V20.8789C94.9226 21.3492 94.7524 21.7545 94.4137 22.0932C94.0742 22.4319 93.6679 22.6021 93.1959 22.6021Z" fill="#CC0000"/>
<path d="M96.9985 13.4978C96.5563 13.4978 96.1834 13.3469 95.8824 13.045C95.5815 12.7415 95.4297 12.3835 95.4297 11.9711C95.4297 11.5456 95.5815 11.1884 95.8824 10.9007C96.1834 10.6137 96.5563 10.469 96.9985 10.469H97.5495V8.47902C97.5495 8.00961 97.7153 7.60776 98.0479 7.27522C98.3795 6.94356 98.7814 6.77686 99.2517 6.77686C99.7237 6.77686 100.122 6.94005 100.445 7.26469C100.77 7.58758 100.933 7.99294 100.933 8.47902L100.908 10.469H101.947C102.374 10.469 102.737 10.6173 103.032 10.9112C103.325 11.206 103.474 11.5666 103.474 11.9922C103.474 12.4203 103.325 12.7827 103.032 13.0766C102.737 13.3714 102.367 13.5188 101.926 13.5188H100.908L100.933 20.8575C100.933 21.3277 100.77 21.7331 100.445 22.0718C100.122 22.4105 99.7237 22.5807 99.2517 22.5807C98.7814 22.5807 98.383 22.4105 98.0584 22.0718C97.7329 21.7331 97.5706 21.3277 97.5706 20.8575V13.4978H96.9985Z" fill="#CC0000"/>
<path d="M113.219 10.2936C113.691 10.2936 114.09 10.4349 114.413 10.7148C114.737 10.9938 114.901 11.3386 114.901 11.7501V21.0331C114.901 21.4595 114.737 21.828 114.413 22.1386C114.09 22.4466 113.684 22.6019 113.198 22.6019C113.006 22.6019 112.762 22.4729 112.468 22.2158C112.174 21.9587 111.878 21.6227 111.584 21.2085C111.052 21.7701 110.585 22.1474 110.18 22.3386C109.775 22.5273 109.248 22.6229 108.601 22.6229C107.082 22.6229 105.803 22.0298 104.765 20.8435C103.728 19.6582 103.21 18.2034 103.21 16.4811C103.21 14.7271 103.733 13.2522 104.779 12.0589C105.824 10.8666 107.114 10.269 108.646 10.269C109.277 10.269 109.785 10.3515 110.17 10.5147C110.553 10.6762 111.04 11.0219 111.63 11.5501C111.923 11.1526 112.21 10.8437 112.489 10.6235C112.769 10.4042 113.013 10.2936 113.219 10.2936ZM106.611 16.4811C106.611 17.3655 106.839 18.0964 107.295 18.6711C107.753 19.2449 108.336 19.5309 109.043 19.5309C109.763 19.5309 110.352 19.2519 110.808 18.6921C111.266 18.1315 111.496 17.3936 111.496 16.4811C111.496 15.5528 111.274 14.8087 110.833 14.249C110.391 13.6883 109.793 13.4066 109.043 13.4066C108.32 13.4066 107.733 13.6918 107.285 14.2595C106.835 14.8263 106.611 15.5668 106.611 16.4811Z" fill="#CC0000"/>
<path d="M124.514 6.82283C124.514 6.35079 124.684 5.94543 125.023 5.6085C125.362 5.26983 125.767 5.09961 126.238 5.09961C126.71 5.09961 127.112 5.26632 127.441 5.59798C127.773 5.92788 127.94 6.33675 127.94 6.82283V20.8999C127.94 21.3728 127.773 21.7756 127.441 22.1072C127.112 22.4363 126.703 22.6021 126.217 22.6021C125.788 22.6021 125.265 22.1309 124.648 21.1877C124.116 21.7475 123.648 22.123 123.244 22.3143C122.839 22.5056 122.312 22.6021 121.665 22.6021C120.16 22.6021 118.888 22.0019 117.85 20.8017C116.813 19.6022 116.295 18.1396 116.295 16.4146C116.295 14.6765 116.818 13.2174 117.864 12.0381C118.909 10.8598 120.198 10.2693 121.731 10.2693C122.318 10.2693 122.785 10.3439 123.132 10.4904C123.477 10.6378 123.939 10.9484 124.514 11.4204V6.82283ZM119.675 16.4567C119.675 17.3412 119.903 18.072 120.359 18.6467C120.814 19.2206 121.398 19.5066 122.107 19.5066C122.827 19.5066 123.419 19.2241 123.883 18.6573C124.348 18.0913 124.581 17.3728 124.581 16.5024C124.581 15.5907 124.351 14.8458 123.893 14.2702C123.437 13.6955 122.848 13.4069 122.128 13.4069C121.435 13.4069 120.852 13.6955 120.38 14.2702C119.91 14.8458 119.675 15.575 119.675 16.4567Z" fill="#CC0000"/>
<path d="M137.554 6.82283C137.554 6.35079 137.723 5.94543 138.062 5.6085C138.401 5.26983 138.806 5.09961 139.277 5.09961C139.749 5.09961 140.151 5.26632 140.481 5.59798C140.812 5.92788 140.979 6.33675 140.979 6.82283V20.8999C140.979 21.3728 140.812 21.7756 140.481 22.1072C140.151 22.4363 139.742 22.6021 139.256 22.6021C138.828 22.6021 138.304 22.1309 137.687 21.1877C137.155 21.7475 136.688 22.123 136.283 22.3143C135.878 22.5056 135.351 22.6021 134.704 22.6021C133.199 22.6021 131.927 22.0019 130.889 20.8017C129.852 19.6022 129.334 18.1396 129.334 16.4146C129.334 14.6765 129.857 13.2174 130.903 12.0381C131.948 10.8598 133.238 10.2693 134.77 10.2693C135.357 10.2693 135.824 10.3439 136.171 10.4904C136.516 10.6378 136.978 10.9484 137.554 11.4204V6.82283ZM132.714 16.4567C132.714 17.3412 132.942 18.072 133.398 18.6467C133.853 19.2206 134.437 19.5066 135.146 19.5066C135.866 19.5066 136.459 19.2241 136.922 18.6573C137.387 18.0913 137.62 17.3728 137.62 16.5024C137.62 15.5907 137.39 14.8458 136.932 14.2702C136.476 13.6955 135.887 13.4069 135.167 13.4069C134.474 13.4069 133.891 13.6955 133.419 14.2702C132.949 14.8458 132.714 15.575 132.714 16.4567Z" fill="#CC0000"/>
<mask id="mask0_1725_12179" style="mask-type:luminance" maskUnits="userSpaceOnUse" x="2" y="0" width="29" height="30">
<path d="M2.24707 0.5H30.5487V29.5H2.24707V0.5Z" fill="white"/>
</mask>
<g mask="url(#mask0_1725_12179)">
<path d="M21.6802 26.8361C21.3959 26.4273 21.1493 26.0702 20.8993 25.7157C19.9929 24.4329 19.3603 23.0159 18.8541 21.5366C18.7312 21.176 18.7988 20.9847 19.0813 20.7276C19.7218 20.1442 20.3728 19.5686 20.9905 18.9605C21.7591 18.206 22.5234 17.4435 23.2455 16.6442C24.6493 15.0903 25.8873 13.4136 26.7937 11.5122C27.2148 10.6278 27.5342 9.70479 27.6465 8.72736C27.8018 7.37704 27.5851 6.11533 26.5884 5.1028C26.0268 4.53249 25.3433 4.13415 24.5879 3.86391C23.27 3.39362 21.9127 3.24709 20.5167 3.32957C17.9144 3.48399 15.4822 4.23505 13.1474 5.35374C10.8697 6.44523 8.80601 7.85347 6.90028 9.50299C5.5017 10.7147 4.22858 12.0475 3.04584 13.4689C2.93002 13.6075 2.80631 13.8681 2.601 13.7461C2.46851 13.668 2.39568 13.411 2.37989 13.2276C2.28864 12.1694 2.63258 11.2166 3.15903 10.3234C4.00221 8.89319 5.1288 7.70343 6.35629 6.60053C8.06986 5.06156 9.95979 3.78582 12.0261 2.76452C13.5326 2.02048 15.0952 1.43086 16.7307 1.04393C17.8126 0.788602 18.9058 0.615753 20.0184 0.539419C21.7337 0.420969 23.4166 0.553457 25.0608 1.06411C26.4927 1.50895 27.7738 2.21351 28.7959 3.33045C29.6707 4.28682 30.2147 5.41077 30.4025 6.69617C30.4691 7.15154 30.5507 7.61569 30.5297 8.07106C30.4683 9.41525 30.1542 10.7094 29.6435 11.9571C28.8126 13.9883 27.5965 15.7782 26.2278 17.4751C25.1784 18.7754 24.0246 19.9792 22.8278 21.1426C22.6102 21.3532 22.3926 21.5638 22.1715 21.77C22.0759 21.8586 22.0513 21.9376 22.1031 22.0718C22.4856 23.0624 23.0559 23.9407 23.7035 24.7733C24.5467 25.8569 25.5767 26.7247 26.7533 27.4275C27.0982 27.6337 27.1122 27.8232 26.7788 28.0548C25.8119 28.7261 24.752 29.1849 23.5877 29.3815C21.7205 29.6973 19.942 29.3727 18.2723 28.5207C17.5581 28.1566 16.9106 27.66 16.2368 27.2169C16.0297 27.0809 15.9569 26.8633 15.956 26.6238C15.9551 25.62 15.9551 24.6163 15.9577 23.6125C15.9577 23.5459 15.9665 23.4774 15.9823 23.4125C16.0306 23.2081 16.1402 23.1642 16.3087 23.2958C16.428 23.3879 16.5342 23.4994 16.6342 23.6125C17.7591 24.8804 19.091 25.8552 20.6641 26.4948C20.7957 26.5492 20.9317 26.594 21.0669 26.6396C21.2476 26.6993 21.4284 26.7554 21.6802 26.8361Z" fill="#333333"/>
</g>
<path d="M14.7536 23.4301V23.431C14.7519 23.4318 14.7492 23.4327 14.7475 23.4336L14.7536 23.4301ZM24.6543 8.4484C24.3726 7.23407 23.5294 6.50495 22.4186 6.05835C21.2517 5.58981 20.033 5.53103 18.7932 5.63895C17.2823 5.76968 15.8556 6.19083 14.4904 6.8331C11.3405 8.31591 8.59511 10.3743 6.12171 12.7995C5.25132 13.6523 4.45639 14.5858 3.67024 15.5185C2.53312 16.8689 1.57412 18.3411 0.867804 19.9652C0.254498 21.3787 -0.134193 22.837 0.043043 24.4023C0.178163 25.5876 0.658982 26.616 1.52498 27.4223C2.8016 28.6147 4.34145 29.1859 6.09275 29.2183C7.93092 29.2517 9.68046 28.8507 11.3879 28.2076C12.6013 27.7496 13.7744 27.2038 14.9001 26.558C15.0826 26.4536 15.1634 26.3124 15.1607 26.1071C15.1563 25.6938 15.1599 25.2797 15.1599 24.8664H15.1607C15.1607 24.5374 15.1721 24.2084 15.1563 23.8802V23.3853C15.1563 23.2923 15.0572 23.2336 14.9756 23.2792L14.5544 23.5126C14.5395 23.5205 14.5229 23.5266 14.5079 23.5354C13.055 24.3873 11.573 25.1805 9.97264 25.7245C8.56353 26.2027 7.1316 26.5528 5.62159 26.3641C4.86614 26.2703 4.1844 26.0009 3.63689 25.4674C2.83231 24.6857 2.70509 23.7091 2.92707 22.6659C3.19644 21.3989 3.78342 20.267 4.4792 19.187C5.68564 17.3137 7.16143 15.6721 8.79867 14.1656C10.2332 12.8468 11.7582 11.6492 13.3954 10.591C14.9817 9.56621 16.6497 8.73268 18.5177 8.36066C19.2266 8.2194 19.9365 8.09744 20.67 8.21589C21.6623 8.37557 22.0843 9.03187 21.7913 9.98649C21.5561 10.756 21.1446 11.4316 20.641 12.0414C19.9672 12.8591 19.288 13.6795 18.5387 14.4262C17.6929 15.2693 16.7655 16.0301 15.8802 16.8338C15.8012 16.9057 15.7021 17.0496 15.7275 17.1189C15.7609 17.211 15.903 17.3172 16.0039 17.3234C16.5146 17.3514 17.0358 17.4093 17.5385 17.3453C19.0538 17.154 20.3243 16.417 21.4254 15.3983C22.6748 14.2428 23.6672 12.8907 24.3287 11.3122C24.7148 10.391 24.8833 9.43197 24.6543 8.4484Z" fill="#CC0000"/>
</svg>
